<svg xmlns="http://www.w3.org/2000/svg" xmlns:xlink="http://www.w3.org/1999/xlink" width="500" zoomAndPan="magnify" viewBox="0 0 375 374.999991" height="500" preserveAspectRatio="xMidYMid meet" version="1.0"><defs><g/><clipPath id="ca9f6cc55c"><path d="M 54.335938 98.675781 L 320.585938 98.675781 L 320.585938 208.175781 L 54.335938 208.175781 Z M 54.335938 98.675781 " clip-rule="nonzero"/></clipPath></defs><g clip-path="url(#ca9f6cc55c)"><path fill="#ffffff" d="M 320.65625 208.175781 L 320.65625 98.699219 L 54.335938 98.699219 L 54.335938 208.175781 Z M 316.355469 205.746094 L 316.355469 196.683594 L 311.527344 196.683594 L 311.527344 205.746094 Z M 218.027344 205.746094 L 218.027344 196.683594 L 213.199219 196.683594 L 213.199219 205.746094 Z M 105.648438 205.746094 L 105.648438 196.683594 L 100.820312 196.683594 L 100.820312 205.746094 Z M 119.695312 205.746094 L 119.695312 196.683594 L 114.871094 196.683594 L 114.871094 205.746094 Z M 133.746094 205.746094 L 133.746094 196.683594 L 128.917969 196.683594 L 128.917969 205.746094 Z M 147.792969 205.746094 L 147.792969 196.683594 L 142.964844 196.683594 L 142.964844 205.746094 Z M 161.839844 205.746094 L 161.839844 196.683594 L 157.011719 196.683594 L 157.011719 205.746094 Z M 175.886719 205.746094 L 175.886719 196.683594 L 171.058594 196.683594 L 171.058594 205.746094 Z M 189.933594 205.746094 L 189.933594 196.683594 L 185.105469 196.683594 L 185.105469 205.746094 Z M 77.554688 205.746094 L 77.554688 196.683594 L 72.726562 196.683594 L 72.726562 205.746094 Z M 91.601562 205.746094 L 91.601562 196.683594 L 86.773438 196.683594 L 86.773438 205.746094 Z M 232.074219 205.746094 L 232.074219 196.683594 L 227.246094 196.683594 L 227.246094 205.746094 Z M 246.121094 205.746094 L 246.121094 196.683594 L 241.292969 196.683594 L 241.292969 205.746094 Z M 260.167969 205.746094 L 260.167969 196.683594 L 255.339844 196.683594 L 255.339844 205.746094 Z M 274.214844 205.746094 L 274.214844 196.683594 L 269.386719 196.683594 L 269.386719 205.746094 Z M 288.261719 205.746094 L 288.261719 196.683594 L 283.433594 196.683594 L 283.433594 205.746094 Z M 302.308594 205.746094 L 302.308594 196.683594 L 297.480469 196.683594 L 297.480469 205.746094 Z M 203.980469 205.746094 L 203.980469 196.683594 L 199.152344 196.683594 L 199.152344 205.746094 Z M 63.507812 205.746094 L 63.507812 196.683594 L 58.679688 196.683594 L 58.679688 205.746094 Z M 309.207031 193.34375 C 311.101562 193.34375 312.921875 192.589844 314.261719 191.25 C 315.601562 189.90625 316.355469 188.089844 316.355469 186.191406 L 316.355469 120.679688 C 316.355469 118.785156 315.601562 116.96875 314.261719 115.625 C 312.921875 114.285156 311.101562 113.53125 309.207031 113.53125 L 242.03125 113.53125 C 239.730469 113.53125 237.527344 114.445312 235.898438 116.074219 C 234.273438 117.699219 233.359375 119.90625 233.359375 122.203125 L 233.359375 184.671875 C 233.359375 186.96875 234.273438 189.175781 235.898438 190.800781 C 237.527344 192.429688 239.730469 193.34375 242.03125 193.34375 Z M 220.34375 193.34375 C 222.644531 193.34375 224.851562 192.429688 226.476562 190.800781 C 228.101562 189.175781 229.015625 186.96875 229.015625 184.671875 L 229.015625 122.203125 C 229.015625 119.90625 228.101562 117.699219 226.476562 116.074219 C 224.851562 114.445312 222.644531 113.53125 220.34375 113.53125 L 154.691406 113.53125 C 152.390625 113.53125 150.1875 114.445312 148.558594 116.074219 C 146.933594 117.699219 146.019531 119.90625 146.019531 122.203125 L 146.019531 184.671875 C 146.019531 186.96875 146.933594 189.175781 148.558594 190.800781 C 150.1875 192.429688 152.390625 193.34375 154.691406 193.34375 Z M 133.003906 193.34375 C 135.304688 193.34375 137.511719 192.429688 139.136719 190.800781 C 140.761719 189.175781 141.675781 186.96875 141.675781 184.671875 L 141.675781 122.203125 C 141.675781 119.90625 140.761719 117.699219 139.136719 116.074219 C 137.511719 114.445312 135.304688 113.53125 133.003906 113.53125 L 65.828125 113.53125 C 63.933594 113.53125 62.117188 114.285156 60.773438 115.625 C 59.433594 116.96875 58.679688 118.785156 58.679688 120.679688 L 58.679688 186.191406 C 58.679688 188.089844 59.433594 189.90625 60.773438 191.25 C 62.117188 192.589844 63.933594 193.34375 65.828125 193.34375 Z M 63.507812 110.644531 L 63.507812 101.585938 L 58.679688 101.585938 L 58.679688 110.644531 Z M 203.980469 110.644531 L 203.980469 101.585938 L 199.152344 101.585938 L 199.152344 110.644531 Z M 218.027344 110.644531 L 218.027344 101.585938 L 213.199219 101.585938 L 213.199219 110.644531 Z M 147.792969 110.644531 L 147.792969 101.585938 L 142.964844 101.585938 L 142.964844 110.644531 Z M 161.839844 110.644531 L 161.839844 101.585938 L 157.011719 101.585938 L 157.011719 110.644531 Z M 175.886719 110.644531 L 175.886719 101.585938 L 171.058594 101.585938 L 171.058594 110.644531 Z M 189.933594 110.644531 L 189.933594 101.585938 L 185.105469 101.585938 L 185.105469 110.644531 Z M 105.648438 110.644531 L 105.648438 101.585938 L 100.820312 101.585938 L 100.820312 110.644531 Z M 232.074219 110.644531 L 232.074219 101.585938 L 227.246094 101.585938 L 227.246094 110.644531 Z M 246.121094 110.644531 L 246.121094 101.585938 L 241.292969 101.585938 L 241.292969 110.644531 Z M 260.167969 110.644531 L 260.167969 101.585938 L 255.339844 101.585938 L 255.339844 110.644531 Z M 274.214844 110.644531 L 274.214844 101.585938 L 269.386719 101.585938 L 269.386719 110.644531 Z M 288.261719 110.644531 L 288.261719 101.585938 L 283.433594 101.585938 L 283.433594 110.644531 Z M 302.308594 110.644531 L 302.308594 101.585938 L 297.480469 101.585938 L 297.480469 110.644531 Z M 316.355469 110.644531 L 316.355469 101.585938 L 311.527344 101.585938 L 311.527344 110.644531 Z M 119.695312 110.644531 L 119.695312 101.585938 L 114.871094 101.585938 L 114.871094 110.644531 Z M 133.746094 110.644531 L 133.746094 101.585938 L 128.917969 101.585938 L 128.917969 110.644531 Z M 91.601562 110.644531 L 91.601562 101.585938 L 86.773438 101.585938 L 86.773438 110.644531 Z M 77.554688 110.644531 L 77.554688 101.585938 L 72.726562 101.585938 L 72.726562 110.644531 Z M 77.554688 110.644531 " fill-opacity="1" fill-rule="evenodd"/></g><g fill="#ffffff" fill-opacity="1"><g transform="translate(114.759371, 255.785945)"><g><path d="M 27.8125 -31.21875 L 8.640625 -31.21875 L 8.640625 -20.25 L 25.25 -20.25 L 25.25 -16.109375 L 8.640625 -16.109375 L 8.640625 0 L 3.953125 0 L 3.953125 -35.375 L 27.8125 -35.375 Z M 27.8125 -31.21875 "/></g></g></g><g fill="#ffffff" fill-opacity="1"><g transform="translate(144.939396, 255.785945)"><g><path d="M 9.234375 0 L 4.546875 0 L 4.546875 -35.375 L 9.234375 -35.375 Z M 9.234375 0 "/></g></g></g><g fill="#ffffff" fill-opacity="1"><g transform="translate(158.671058, 255.785945)"><g><path d="M 8.40625 -4.15625 L 25.84375 -4.15625 L 25.84375 0 L 3.703125 0 L 3.703125 -35.375 L 8.40625 -35.375 Z M 8.40625 -4.15625 "/></g></g></g><g fill="#ffffff" fill-opacity="1"><g transform="translate(186.134394, 255.785945)"><g><path d="M 19.46875 -9.4375 C 19.695312 -8.78125 20.15625 -7.332031 20.84375 -5.09375 C 21.207031 -6.238281 21.800781 -8.03125 22.625 -10.46875 L 31.21875 -35.375 L 37.5 -35.375 L 37.5 0 L 33 0 L 33 -29.59375 L 22.734375 0 L 18.484375 0 L 8.25 -30.09375 L 8.25 0 L 3.75 0 L 3.75 -35.375 L 10.8125 -35.375 Z M 19.46875 -9.4375 "/></g></g></g><g fill="#ffffff" fill-opacity="1"><g transform="translate(227.279998, 255.785945)"><g><path d="M 16 -35.96875 C 20.019531 -35.96875 23.195312 -35.023438 25.53125 -33.140625 C 27.875 -31.265625 29.128906 -28.679688 29.296875 -25.390625 L 24.796875 -25.09375 C 24.535156 -27.363281 23.710938 -29.039062 22.328125 -30.125 C 20.941406 -31.21875 18.898438 -31.765625 16.203125 -31.765625 C 13.640625 -31.765625 11.648438 -31.296875 10.234375 -30.359375 C 8.816406 -29.421875 8.109375 -28.144531 8.109375 -26.53125 C 8.109375 -25.476562 8.421875 -24.582031 9.046875 -23.84375 C 9.671875 -23.101562 10.554688 -22.566406 11.703125 -22.234375 C 11.972656 -22.171875 12.945312 -21.882812 14.625 -21.375 C 16.300781 -20.863281 18.441406 -20.328125 21.046875 -19.765625 C 24.140625 -19.066406 26.457031 -17.828125 28 -16.046875 C 29.550781 -14.273438 30.328125 -12.253906 30.328125 -9.984375 C 30.328125 -8.066406 29.804688 -6.300781 28.765625 -4.6875 C 27.734375 -3.070312 26.226562 -1.785156 24.25 -0.828125 C 22.28125 0.117188 19.945312 0.59375 17.25 0.59375 C 14.144531 0.59375 11.472656 0.0976562 9.234375 -0.890625 C 6.992188 -1.878906 5.28125 -3.269531 4.09375 -5.0625 C 2.914062 -6.851562 2.289062 -8.953125 2.21875 -11.359375 L 6.671875 -11.765625 C 6.867188 -8.960938 7.972656 -6.898438 9.984375 -5.578125 C 11.992188 -4.265625 14.363281 -3.609375 17.09375 -3.609375 C 19.820312 -3.609375 21.96875 -4.164062 23.53125 -5.28125 C 25.101562 -6.40625 25.890625 -7.921875 25.890625 -9.828125 C 25.890625 -12.429688 23.796875 -14.242188 19.609375 -15.265625 L 16.84375 -15.953125 C 15.132812 -16.347656 13.160156 -16.878906 10.921875 -17.546875 C 8.648438 -18.203125 6.867188 -19.3125 5.578125 -20.875 C 4.296875 -22.4375 3.65625 -24.222656 3.65625 -26.234375 C 3.65625 -28.078125 4.148438 -29.738281 5.140625 -31.21875 C 6.128906 -32.707031 7.550781 -33.867188 9.40625 -34.703125 C 11.269531 -35.546875 13.46875 -35.96875 16 -35.96875 Z M 16 -35.96875 "/></g></g></g></svg>